<?xml version="1.0" encoding="UTF-8" standalone="no"?>
<!-- Created with Inkscape (http://www.inkscape.org/) -->

<svg
   width="350"
   height="350"
   viewBox="0 0 92.604164 92.60417"
   version="1.1"
   id="svg5"
   inkscape:version="1.1.1 (3bf5ae0d25, 2021-09-20, custom)"
   sodipodi:docname="auntie-nae.svg"
   xmlns:inkscape="http://www.inkscape.org/namespaces/inkscape"
   xmlns:sodipodi="http://sodipodi.sourceforge.net/DTD/sodipodi-0.dtd"
   xmlns="http://www.w3.org/2000/svg"
   xmlns:svg="http://www.w3.org/2000/svg">
  <sodipodi:namedview
     id="namedview7"
     pagecolor="#ffffff"
     bordercolor="#666666"
     borderopacity="1.0"
     inkscape:pageshadow="2"
     inkscape:pageopacity="1"
     inkscape:pagecheckerboard="0"
     inkscape:document-units="px"
     showgrid="false"
     fit-margin-top="0"
     fit-margin-left="0"
     fit-margin-right="0"
     fit-margin-bottom="0"
     units="px"
     height="350px"
     inkscape:zoom="1.1210795"
     inkscape:cx="-137.8136"
     inkscape:cy="139.5976"
     inkscape:window-width="1280"
     inkscape:window-height="1024"
     inkscape:window-x="0"
     inkscape:window-y="0"
     inkscape:window-maximized="1"
     inkscape:current-layer="svg5" />
  <defs
     id="defs2" />
  <rect
     width="100%"
     height="100%"
     fill="white"
     id="rect4" />
  <g
     inkscape:label="Layer 1"
     inkscape:groupmode="layer"
     id="layer1"
     transform="translate(-68.934363,-47.529013)">
    <g
       id="g6565"
       inkscape:transform-center-x="-0.78469029"
       inkscape:transform-center-y="-14.066284"
       transform="rotate(-2.7425889,154.30675,-189.99528)">
      <circle
         style="fill:none;fill-rule:evenodd;stroke:#000000;stroke-width:0.79375;stroke-miterlimit:4;stroke-dasharray:none"
         id="path31"
         cx="100.53593"
         cy="106.91068"
         r="27.797153" />
      <path
         style="fill:none;stroke:#000000;stroke-width:0.79375;stroke-linecap:butt;stroke-linejoin:miter;stroke-miterlimit:4;stroke-dasharray:none;stroke-opacity:1"
         d="m 91.587706,120.91591 c 8.459244,4.29987 20.834044,-1.96176 20.834044,-1.96176"
         id="path2555" />
      <path
         style="fill:none;stroke:#000000;stroke-width:0.79375;stroke-linecap:butt;stroke-linejoin:miter;stroke-miterlimit:4;stroke-dasharray:none;stroke-opacity:1"
         d="m 107.97467,106.7227 c 3.05323,-2.58356 4.6797,-2.38136 7.36623,-0.3064"
         id="path2557" />
      <path
         style="fill:none;stroke:#000000;stroke-width:0.79375;stroke-linecap:butt;stroke-linejoin:miter;stroke-miterlimit:4;stroke-dasharray:none;stroke-opacity:1"
         d="m 86.123067,106.7227 c 3.05323,-2.58356 4.6797,-2.38136 7.36623,-0.3064"
         id="path2639" />
      <path
         id="path2934"
         style="fill:#000000;stroke:none;stroke-width:0.999999px;stroke-linecap:butt;stroke-linejoin:miter;stroke-opacity:1"
         d="m 365.6184,266.70865 c -95.4045,-48.20468 -115.94484,94.76373 -99.36556,185.64881 l 19.73722,17.71105 c -2.54262,-106.44169 14.00769,-178.81284 67.05036,-130.69593 102.12551,-82.22095 145.13347,53.37574 119.74669,130.2368 l 31.97592,-37.09591 C 515.82274,323.45419 496.04809,205.64457 365.6184,266.70865 Z"
         transform="scale(0.26458333)"
         sodipodi:nodetypes="ccccccc" />
      <g
         id="g6548"
         transform="translate(0,0.75256066)">
        <path
           id="path958"
           style="fill:none;stroke:#000000;stroke-width:0.79375;stroke-miterlimit:4;stroke-dasharray:none"
           d="m 111.24406,101.01657 c -3.57162,-8e-5 -6.46712,1.78927 -6.46731,3.99666 0,0 0.24481,5.57908 6.46731,5.57908 6.22251,0 6.46679,-5.57908 6.46679,-5.57908 -1.8e-4,-2.20726 -2.89537,-3.99657 -6.46679,-3.99666 z"
           sodipodi:nodetypes="sczcs" />
        <path
           id="path1784"
           style="fill:none;stroke:#000000;stroke-width:0.79375;stroke-miterlimit:4;stroke-dasharray:none"
           d="m 89.827791,101.01657 c 3.571625,-8e-5 6.46712,1.78927 6.4673,3.99666 0,0 -0.244795,5.57908 -6.4673,5.57908 -6.222505,0 -6.466785,-5.57908 -6.466785,-5.57908 1.8e-4,-2.20726 2.89536,-3.99657 6.466785,-3.99666 z"
           sodipodi:nodetypes="sczcs" />
        <path
           style="fill:none;stroke:#000000;stroke-width:0.79375;stroke-linecap:butt;stroke-linejoin:miter;stroke-miterlimit:4;stroke-dasharray:none;stroke-opacity:1"
           d="m 96.209453,104.67233 c 2.512433,-2.56897 6.924507,-1.99543 8.528807,0"
           id="path2674"
           sodipodi:nodetypes="cc" />
        <path
           style="fill:none;stroke:#000000;stroke-width:0.79375;stroke-linecap:butt;stroke-linejoin:miter;stroke-miterlimit:4;stroke-dasharray:none;stroke-opacity:1"
           d="m 117.74176,104.38355 8.06552,-7.439048"
           id="path4904"
           sodipodi:nodetypes="cc" />
        <path
           style="fill:none;stroke:#000000;stroke-width:0.79375;stroke-linecap:butt;stroke-linejoin:miter;stroke-miterlimit:4;stroke-dasharray:none;stroke-opacity:1"
           d="M 83.435832,104.20033 76.413359,96.303392"
           id="path5071" />
      </g>
      <path
         style="fill:none;stroke:#000000;stroke-width:0.79375;stroke-linecap:butt;stroke-linejoin:miter;stroke-miterlimit:4;stroke-dasharray:none;stroke-opacity:1"
         d="m 111.66028,75.262832 c 0.5303,-22.927038 12.44303,-34.162999 17.03068,-20.209289"
         id="path5381"
         sodipodi:nodetypes="cc" />
      <circle
         style="fill:#ffffff;stroke:#000000;stroke-width:0.79375;stroke-miterlimit:4;stroke-dasharray:none"
         id="path5405"
         cx="128.96555"
         cy="55.61552"
         r="2.585681" />
      <path
         style="fill:none;stroke:#000000;stroke-width:0.79375;stroke-linecap:butt;stroke-linejoin:miter;stroke-miterlimit:4;stroke-dasharray:none;stroke-opacity:1"
         d="M 92.471511,78.971893 C 87.68027,52.084035 83.752827,48.042057 79.090265,54.571711"
         id="path6442" />
      <circle
         style="fill:#ffffff;stroke:#000000;stroke-width:0.79375;stroke-miterlimit:4;stroke-dasharray:none"
         id="circle6524"
         cx="78.470589"
         cy="55.907391"
         r="2.585681" />
    </g>
  </g>
</svg>
